<svg xmlns="http://www.w3.org/2000/svg" width="1200" height="468" viewBox="0 0 1200 468" font-family="Inter,ui-sans-serif,Segoe UI,Roboto,sans-serif" role="img" aria-labelledby="dmT dmD">
  <title id="dmT">Compression measured across eight corpus domains</title>
  <desc id="dmD">Savings reported per domain rather than as a single blended figure, because a headline average is set by whichever domain happens to carry the most content. Each domain is counted once.</desc>
  <defs>
    <linearGradient id="bg" x1="0" y1="0" x2="1" y2="1"><stop offset="0" stop-color="#0b0c13"/><stop offset="1" stop-color="#06070b"/></linearGradient>
    <radialGradient id="vig" cx="0.74" cy="-0.05" r="0.85"><stop offset="0" stop-color="#1a1640" stop-opacity="0.55"/><stop offset="1" stop-color="#06070b" stop-opacity="0"/></radialGradient>
    <linearGradient id="g" x1="0" y1="0" x2="1" y2="0"><stop offset="0" stop-color="#8b7bff"/><stop offset="1" stop-color="#5ad1c9"/></linearGradient>
    <linearGradient id="card" x1="0" y1="0" x2="0" y2="1"><stop offset="0" stop-color="#12151f"/><stop offset="1" stop-color="#0b0d15"/></linearGradient>
    <linearGradient id="hero" x1="0" y1="0" x2="0" y2="1"><stop offset="0" stop-color="#141a2e"/><stop offset="1" stop-color="#0c0f1d"/></linearGradient>
    <pattern id="dots" width="24" height="24" patternUnits="userSpaceOnUse"><circle cx="1.5" cy="1.5" r="1" fill="#ffffff" opacity="0.025"/></pattern>
    <filter id="sh" x="-20%" y="-20%" width="140%" height="160%"><feDropShadow dx="0" dy="5" stdDeviation="9" flood-color="#000000" flood-opacity="0.55"/></filter>
    <filter id="glow" x="-60%" y="-60%" width="220%" height="220%"><feGaussianBlur stdDeviation="9" result="b"/><feMerge><feMergeNode in="b"/><feMergeNode in="SourceGraphic"/></feMerge></filter>
    <marker id="ar" markerWidth="8" markerHeight="8" refX="6" refY="3" orient="auto"><path d="M0,0 L6,3 L0,6 Z" fill="#6b7390"/></marker>
    <marker id="arg" markerWidth="8" markerHeight="8" refX="6" refY="3" orient="auto"><path d="M0,0 L6,3 L0,6 Z" fill="#7d8cff"/></marker>
    <style>
      @keyframes grow{from{transform:scaleX(0)}to{transform:scaleX(1)}}
      .dbar{transform-box:fill-box;transform-origin:left center;animation:grow .85s cubic-bezier(.2,.75,.25,1) both}
      .dr1{animation-delay:0s}.dr2{animation-delay:.08s}.dr3{animation-delay:.16s}.dr4{animation-delay:.24s}.dr5{animation-delay:.32s}.dr6{animation-delay:.40s}.dr7{animation-delay:.48s}.dr8{animation-delay:.56s}
      @media(prefers-reduced-motion:reduce){.dbar{animation:none}}
    </style>
  </defs>

  <!-- 3-layer background -->
  <rect width="1200" height="468" fill="url(#bg)"/>
  <rect width="1200" height="468" fill="url(#dots)"/>
  <rect width="1200" height="468" fill="url(#vig)"/>

  <!-- title -->
  <text x="40" y="46" font-size="22" font-weight="800" fill="#f2f3f7">Measured across 8 domains <tspan fill="#5b6177" font-weight="400" font-size="14">&#x2014; the same gate, not one cherry-picked example</tspan></text>
  <text x="40" y="72" font-size="13" fill="#8b91a3">Every trajectory: distil certified non-inferior, the gate rejects lossy aggression, savings are lossless. <tspan fill="#5ad1c9">distil bench</tspan></text>

  <!-- column headers -->
  <g font-size="11" fill="#5b6177" transform="translate(40,104)">
    <text x="0" y="0">DOMAIN</text>
    <text x="160" y="0">LOSSLESS SAVINGS</text>
    <text x="600" y="0">DISTIL</text>
    <text x="730" y="0">AGGRESSIVE</text>
    <text x="900" y="0">TOKENS PRUNED</text>
  </g>
  <line x1="40" y1="116" x2="1160" y2="116" stroke="#252c3e" stroke-width="1"/>

  <!-- rows: bar columns[160..520] | % @540 | PASS @600 | FAIL @730 | tokens @910 -->
  <g transform="translate(40,116)">

    <!-- ops/sre 32.8 615 -->
    <g transform="translate(0,38)">
      <rect class="dbar dr1" x="160" y="-9" width="360" height="20" rx="6" fill="url(#g)" opacity="0.2" filter="url(#glow)"/>
      <rect class="dbar dr1" x="160" y="-9" width="360" height="20" rx="6" fill="url(#g)"/>
      <text x="0" y="5" font-size="13" fill="#f2f3f7">ops/sre</text>
      <text x="540" y="5" font-size="13" font-weight="700" fill="#f2f3f7">32.8%</text>
      <rect x="596" y="-4" width="76" height="18" rx="9" fill="#0d3028" stroke="#1a5040"/>
      <text x="634" y="9" text-anchor="middle" font-size="11" font-weight="700" fill="#5ad19a">&#x2714; PASS</text>
      <rect x="726" y="-4" width="68" height="18" rx="9" fill="#2e1a1a" stroke="#4a2525"/>
      <text x="760" y="9" text-anchor="middle" font-size="11" font-weight="700" fill="#ff8a6b">&#x2718; FAIL</text>
      <text x="930" y="5" font-size="13" fill="#8b91a3">615</text>
      <line x1="0" y1="19" x2="1120" y2="19" stroke="#1a1f2e" stroke-width="1" opacity="0.7"/>
    </g>

    <!-- coding 25.5 736 -->
    <g transform="translate(0,76)">
      <rect class="dbar dr2" x="160" y="-9" width="280" height="20" rx="6" fill="url(#g)" opacity="0.2" filter="url(#glow)"/>
      <rect class="dbar dr2" x="160" y="-9" width="280" height="20" rx="6" fill="url(#g)"/>
      <text x="0" y="5" font-size="13" fill="#f2f3f7">coding</text>
      <text x="540" y="5" font-size="13" font-weight="700" fill="#f2f3f7">25.5%</text>
      <rect x="596" y="-4" width="76" height="18" rx="9" fill="#0d3028" stroke="#1a5040"/>
      <text x="634" y="9" text-anchor="middle" font-size="11" font-weight="700" fill="#5ad19a">&#x2714; PASS</text>
      <rect x="726" y="-4" width="68" height="18" rx="9" fill="#2e1a1a" stroke="#4a2525"/>
      <text x="760" y="9" text-anchor="middle" font-size="11" font-weight="700" fill="#ff8a6b">&#x2718; FAIL</text>
      <text x="930" y="5" font-size="13" fill="#8b91a3">736</text>
      <line x1="0" y1="19" x2="1120" y2="19" stroke="#1a1f2e" stroke-width="1" opacity="0.7"/>
    </g>

    <!-- support 32.6 765 -->
    <g transform="translate(0,114)">
      <rect class="dbar dr3" x="160" y="-9" width="358" height="20" rx="6" fill="url(#g)" opacity="0.2" filter="url(#glow)"/>
      <rect class="dbar dr3" x="160" y="-9" width="358" height="20" rx="6" fill="url(#g)"/>
      <text x="0" y="5" font-size="13" fill="#f2f3f7">support</text>
      <text x="540" y="5" font-size="13" font-weight="700" fill="#f2f3f7">32.6%</text>
      <rect x="596" y="-4" width="76" height="18" rx="9" fill="#0d3028" stroke="#1a5040"/>
      <text x="634" y="9" text-anchor="middle" font-size="11" font-weight="700" fill="#5ad19a">&#x2714; PASS</text>
      <rect x="726" y="-4" width="68" height="18" rx="9" fill="#2e1a1a" stroke="#4a2525"/>
      <text x="760" y="9" text-anchor="middle" font-size="11" font-weight="700" fill="#ff8a6b">&#x2718; FAIL</text>
      <text x="930" y="5" font-size="13" fill="#8b91a3">765</text>
      <line x1="0" y1="19" x2="1120" y2="19" stroke="#1a1f2e" stroke-width="1" opacity="0.7"/>
    </g>

    <!-- research 25.7 809 -->
    <g transform="translate(0,152)">
      <rect class="dbar dr4" x="160" y="-9" width="282" height="20" rx="6" fill="url(#g)" opacity="0.2" filter="url(#glow)"/>
      <rect class="dbar dr4" x="160" y="-9" width="282" height="20" rx="6" fill="url(#g)"/>
      <text x="0" y="5" font-size="13" fill="#f2f3f7">research</text>
      <text x="540" y="5" font-size="13" font-weight="700" fill="#f2f3f7">25.7%</text>
      <rect x="596" y="-4" width="76" height="18" rx="9" fill="#0d3028" stroke="#1a5040"/>
      <text x="634" y="9" text-anchor="middle" font-size="11" font-weight="700" fill="#5ad19a">&#x2714; PASS</text>
      <rect x="726" y="-4" width="68" height="18" rx="9" fill="#2e1a1a" stroke="#4a2525"/>
      <text x="760" y="9" text-anchor="middle" font-size="11" font-weight="700" fill="#ff8a6b">&#x2718; FAIL</text>
      <text x="930" y="5" font-size="13" fill="#8b91a3">809</text>
      <line x1="0" y1="19" x2="1120" y2="19" stroke="#1a1f2e" stroke-width="1" opacity="0.7"/>
    </g>

    <!-- data-analysis 18.1 965 -->
    <g transform="translate(0,190)">
      <rect class="dbar dr5" x="160" y="-9" width="199" height="20" rx="6" fill="url(#g)" opacity="0.2" filter="url(#glow)"/>
      <rect class="dbar dr5" x="160" y="-9" width="199" height="20" rx="6" fill="url(#g)"/>
      <text x="0" y="5" font-size="13" fill="#f2f3f7">data-analysis</text>
      <text x="540" y="5" font-size="13" font-weight="700" fill="#f2f3f7">18.1%</text>
      <rect x="596" y="-4" width="76" height="18" rx="9" fill="#0d3028" stroke="#1a5040"/>
      <text x="634" y="9" text-anchor="middle" font-size="11" font-weight="700" fill="#5ad19a">&#x2714; PASS</text>
      <rect x="726" y="-4" width="68" height="18" rx="9" fill="#2e1a1a" stroke="#4a2525"/>
      <text x="760" y="9" text-anchor="middle" font-size="11" font-weight="700" fill="#ff8a6b">&#x2718; FAIL</text>
      <text x="930" y="5" font-size="13" fill="#8b91a3">965</text>
      <line x1="0" y1="19" x2="1120" y2="19" stroke="#1a1f2e" stroke-width="1" opacity="0.7"/>
    </g>

    <!-- devops 22.8 857 -->
    <g transform="translate(0,228)">
      <rect class="dbar dr6" x="160" y="-9" width="250" height="20" rx="6" fill="url(#g)" opacity="0.2" filter="url(#glow)"/>
      <rect class="dbar dr6" x="160" y="-9" width="250" height="20" rx="6" fill="url(#g)"/>
      <text x="0" y="5" font-size="13" fill="#f2f3f7">devops</text>
      <text x="540" y="5" font-size="13" font-weight="700" fill="#f2f3f7">22.8%</text>
      <rect x="596" y="-4" width="76" height="18" rx="9" fill="#0d3028" stroke="#1a5040"/>
      <text x="634" y="9" text-anchor="middle" font-size="11" font-weight="700" fill="#5ad19a">&#x2714; PASS</text>
      <rect x="726" y="-4" width="68" height="18" rx="9" fill="#2e1a1a" stroke="#4a2525"/>
      <text x="760" y="9" text-anchor="middle" font-size="11" font-weight="700" fill="#ff8a6b">&#x2718; FAIL</text>
      <text x="930" y="5" font-size="13" fill="#8b91a3">857</text>
      <line x1="0" y1="19" x2="1120" y2="19" stroke="#1a1f2e" stroke-width="1" opacity="0.7"/>
    </g>

    <!-- finance 24.9 1014 -->
    <g transform="translate(0,266)">
      <rect class="dbar dr7" x="160" y="-9" width="273" height="20" rx="6" fill="url(#g)" opacity="0.2" filter="url(#glow)"/>
      <rect class="dbar dr7" x="160" y="-9" width="273" height="20" rx="6" fill="url(#g)"/>
      <text x="0" y="5" font-size="13" fill="#f2f3f7">finance</text>
      <text x="540" y="5" font-size="13" font-weight="700" fill="#f2f3f7">24.9%</text>
      <rect x="596" y="-4" width="76" height="18" rx="9" fill="#0d3028" stroke="#1a5040"/>
      <text x="634" y="9" text-anchor="middle" font-size="11" font-weight="700" fill="#5ad19a">&#x2714; PASS</text>
      <rect x="726" y="-4" width="68" height="18" rx="9" fill="#2e1a1a" stroke="#4a2525"/>
      <text x="760" y="9" text-anchor="middle" font-size="11" font-weight="700" fill="#ff8a6b">&#x2718; FAIL</text>
      <text x="930" y="5" font-size="13" fill="#8b91a3">1014</text>
      <line x1="0" y1="19" x2="1120" y2="19" stroke="#1a1f2e" stroke-width="1" opacity="0.7"/>
    </g>

    <!-- web-research 89.8 428 -->
    <g transform="translate(0,304)">
      <rect class="dbar dr8" x="160" y="-9" width="940" height="20" rx="6" fill="url(#g)" opacity="0.2" filter="url(#glow)"/>
      <rect class="dbar dr8" x="160" y="-9" width="940" height="20" rx="6" fill="url(#g)"/>
      <text x="0" y="5" font-size="13" fill="#f2f3f7">web-research</text>
      <text x="540" y="5" font-size="13" font-weight="700" fill="#f2f3f7">89.8%</text>
      <rect x="596" y="-4" width="76" height="18" rx="9" fill="#0d3028" stroke="#1a5040"/>
      <text x="634" y="9" text-anchor="middle" font-size="11" font-weight="700" fill="#5ad19a">&#x2714; PASS</text>
      <rect x="726" y="-4" width="68" height="18" rx="9" fill="#2e1a1a" stroke="#4a2525"/>
      <text x="760" y="9" text-anchor="middle" font-size="11" font-weight="700" fill="#ff8a6b">&#x2718; FAIL</text>
      <text x="930" y="5" font-size="13" fill="#8b91a3">428</text>
      <line x1="0" y1="19" x2="1120" y2="19" stroke="#1a1f2e" stroke-width="1" opacity="0.7"/>
    </g>

  </g>

  <line x1="40" y1="402" x2="1160" y2="402" stroke="#252c3e" stroke-width="1"/>
  <text x="40" y="424" font-size="13" fill="#8b91a3">aggregate: <tspan fill="#5ad1c9" font-weight="700">25.3% cheaper</tspan>, reversibly &#xB7; <tspan fill="#f2f3f7">5,761 tokens</tspan> causally prunable &#xB7; <tspan fill="#5ad19a">GATE: PASS</tspan></text>
</svg>
